<svg width="512" height="512" viewBox="0 0 512 512" fill="none" xmlns="http://www.w3.org/2000/svg">
  <defs>
    <linearGradient id="finalBgA" x1="64" y1="52" x2="444" y2="456" gradientUnits="userSpaceOnUse">
      <stop offset="0" stop-color="#2B1821"/>
      <stop offset="0.58" stop-color="#151C2E"/>
      <stop offset="1" stop-color="#0C1321"/>
    </linearGradient>
    <linearGradient id="finalGoldA" x1="112" y1="96" x2="400" y2="416" gradientUnits="userSpaceOnUse">
      <stop offset="0" stop-color="#FFE2B4"/>
      <stop offset="0.36" stop-color="#F3BA70"/>
      <stop offset="0.7" stop-color="#D7793E"/>
      <stop offset="1" stop-color="#8F3F21"/>
    </linearGradient>
    <radialGradient id="finalGlowA" cx="0" cy="0" r="1" gradientUnits="userSpaceOnUse" gradientTransform="translate(256 158) rotate(90) scale(214 248)">
      <stop offset="0" stop-color="#E58A48" stop-opacity="0.3"/>
      <stop offset="1" stop-color="#E58A48" stop-opacity="0"/>
    </radialGradient>
  </defs>
  <rect x="20" y="20" width="472" height="472" rx="124" fill="url(#finalBgA)"/>
  <rect x="20" y="20" width="472" height="472" rx="124" fill="url(#finalGlowA)"/>
  <rect x="45" y="45" width="422" height="422" rx="102" stroke="url(#finalGoldA)" stroke-opacity="0.23" stroke-width="2"/>
  <path d="M351 157C334 132 303 118 268 118C205 118 157 163 157 224C157 285 205 330 268 330H313" stroke="url(#finalGoldA)" stroke-width="34" stroke-linecap="round"/>
  <path d="M319 187H243C220 187 201 205 201 228C201 251 220 270 243 270H278C302 270 321 289 321 312C321 335 302 353 278 353H193" stroke="url(#finalGoldA)" stroke-width="34" stroke-linecap="round" stroke-linejoin="round"/>
  <path d="M136 382H376" stroke="url(#finalGoldA)" stroke-opacity="0.7" stroke-width="10" stroke-linecap="round"/>
  <circle cx="170" cy="382" r="6" fill="#F3BA70"/>
  <circle cx="342" cy="382" r="6" fill="#F3BA70"/>
</svg>
