<svg xmlns="http://www.w3.org/2000/svg" viewBox="0 0 72 72" fill="none">
  <defs>
    <linearGradient id="brandGlow" x1="14%" y1="14%" x2="88%" y2="92%">
      <stop offset="0%" stop-color="#ffe0b4" />
      <stop offset="38%" stop-color="#f4b15f" />
      <stop offset="72%" stop-color="#d86f33" />
      <stop offset="100%" stop-color="#8d3718" />
    </linearGradient>
    <linearGradient id="brandFrame" x1="0%" y1="0%" x2="100%" y2="100%">
      <stop offset="0%" stop-color="#2b1320" />
      <stop offset="55%" stop-color="#151828" />
      <stop offset="100%" stop-color="#0c1220" />
    </linearGradient>
    <radialGradient id="brandAura" cx="50%" cy="18%" r="85%">
      <stop offset="0%" stop-color="#3a2418" stop-opacity="0.72" />
      <stop offset="44%" stop-color="#d66535" stop-opacity="0.18" />
      <stop offset="100%" stop-color="#0c1220" stop-opacity="0" />
    </radialGradient>
  </defs>
  <rect x="4" y="4" width="64" height="64" rx="20" fill="url(#brandFrame)" />
  <rect x="8" y="8" width="56" height="56" rx="17" fill="url(#brandAura)" />
  <path
    d="M22 22.5c0-6.3 5.1-11.5 11.5-11.5h5c6.4 0 11.5 5.2 11.5 11.5V45c0 8.3-6.7 15-15 15s-15-6.7-15-15V22.5Z"
    fill="none"
    stroke="url(#brandGlow)"
    stroke-width="2.8"
    stroke-linejoin="round"
  />
  <path
    d="M28 27.5h16c2.5 0 4.5 2 4.5 4.5v11.5H23.5V32c0-2.5 2-4.5 4.5-4.5Z"
    fill="rgba(255,255,255,0.02)"
    stroke="url(#brandGlow)"
    stroke-width="2.3"
  />
  <path d="M29 24.2h14" stroke="url(#brandGlow)" stroke-width="2.2" stroke-linecap="round" />
  <path d="m33.7 33.2 7.8 4.3-7.8 4.2Z" fill="url(#brandGlow)" />
  <circle cx="28" cy="18.7" r="2.2" fill="none" stroke="url(#brandGlow)" stroke-width="2" />
  <circle cx="35.8" cy="16.5" r="2.9" fill="none" stroke="url(#brandGlow)" stroke-width="2" />
  <circle cx="43.8" cy="18.7" r="2.2" fill="none" stroke="url(#brandGlow)" stroke-width="2" />
  <path d="M26 49.5h20" stroke="url(#brandGlow)" stroke-width="2.3" stroke-linecap="round" />
  <path d="M29 54.2c2.1 1.6 4.4 2.3 7 2.3s4.9-.7 7-2.3" stroke="url(#brandGlow)" stroke-width="2.1" stroke-linecap="round" />
  <path d="M18.5 27v14.5M53.5 27v14.5" stroke="url(#brandGlow)" stroke-width="1.7" stroke-linecap="round" opacity="0.9" />
  <circle cx="18.5" cy="23" r="1.4" fill="url(#brandGlow)" />
  <circle cx="18.5" cy="45.5" r="1.4" fill="url(#brandGlow)" />
  <circle cx="53.5" cy="23" r="1.4" fill="url(#brandGlow)" />
  <circle cx="53.5" cy="45.5" r="1.4" fill="url(#brandGlow)" />
</svg>
