<svg xmlns="http://www.w3.org/2000/svg" viewBox="0 0 72 72" fill="none">
  <defs>
    <linearGradient id="brandGold" x1="0%" y1="0%" x2="100%" y2="100%">
      <stop offset="0%" stop-color="#ffd29c" />
      <stop offset="45%" stop-color="#f0a44f" />
      <stop offset="100%" stop-color="#b95a1f" />
    </linearGradient>
    <linearGradient id="brandDark" x1="0%" y1="0%" x2="0%" y2="100%">
      <stop offset="0%" stop-color="#3a1c1f" />
      <stop offset="100%" stop-color="#140e1b" />
    </linearGradient>
  </defs>
  <rect width="72" height="72" rx="18" fill="#130f1d" />
  <path
    d="M36 8 57 15.5v18.7c0 13-8.1 22.4-21 28.9C23.1 56.6 15 47.2 15 34.2V15.5L36 8Z"
    fill="url(#brandDark)"
    stroke="url(#brandGold)"
    stroke-width="2.8"
    stroke-linejoin="round"
  />
  <path
    d="M23 25h21a2.5 2.5 0 0 1 2.5 2.5v10a2.5 2.5 0 0 1-2.5 2.5H23a2.5 2.5 0 0 1-2.5-2.5v-10A2.5 2.5 0 0 1 23 25Z"
    stroke="url(#brandGold)"
    stroke-width="2.3"
  />
  <circle cx="27" cy="19" r="4.3" stroke="url(#brandGold)" stroke-width="2.2" />
  <circle cx="37.5" cy="19.5" r="5.3" stroke="url(#brandGold)" stroke-width="2.2" />
  <circle cx="27" cy="19" r="1.2" fill="url(#brandGold)" />
  <circle cx="37.5" cy="19.5" r="1.3" fill="url(#brandGold)" />
  <path d="m44.2 29.2 7.6 3.8-7.6 3.8Z" fill="url(#brandGold)" />
  <path d="M18.2 29.5 13 33l5.2 3.5Z" fill="url(#brandGold)" />
  <path d="M23 44.5h26" stroke="url(#brandGold)" stroke-width="2.2" stroke-linecap="round" />
  <path d="M25 50.3c2.8 2 6.5 3.2 11 3.2 4.5 0 8.2-1.2 11-3.2" stroke="url(#brandGold)" stroke-width="2" stroke-linecap="round" />
</svg>
